<svg width="332" height="692" viewBox="0 0 332 692" fill="none" xmlns="http://www.w3.org/2000/svg">
<path d="M0 68.5209C0 50.3014 0 41.1916 2.39546 33.8191C7.23685 18.9189 18.9189 7.23685 33.8191 2.39546C41.1916 0 50.3014 0 68.5209 0H263.479C281.699 0 290.808 0 298.181 2.39546C313.081 7.23685 324.763 18.9189 329.604 33.8191C332 41.1916 332 50.3014 332 68.5209V623.214C332 641.433 332 650.543 329.604 657.915C324.763 672.816 313.081 684.498 298.181 689.339C290.808 691.734 281.699 691.734 263.479 691.734H68.5209C50.3014 691.734 41.1916 691.734 33.8191 689.339C18.9189 684.498 7.23685 672.816 2.39546 657.915C0 650.543 0 641.433 0 623.214V68.5209Z" fill="#121515"/>
</svg>
