<svg width="14" height="14" viewBox="0 0 14 14" fill="none" xmlns="http://www.w3.org/2000/svg">
<path fill-rule="evenodd" clip-rule="evenodd" d="M6.99991 13.9998C10.8659 13.9998 13.9998 10.8659 13.9998 6.99991C13.9998 3.13397 10.8659 0 6.99991 0C3.13397 0 0 3.13397 0 6.99991C0 10.8659 3.13397 13.9998 6.99991 13.9998Z" fill="#262C2D"/>
<path fill-rule="evenodd" clip-rule="evenodd" d="M6.99988 11.3754C9.4161 11.3754 11.3748 9.41662 11.3748 7.00041C11.3748 4.58419 9.4161 2.62546 6.99988 2.62546C4.58366 2.62546 2.62493 4.58419 2.62493 7.00041C2.62493 9.41662 4.58366 11.3754 6.99988 11.3754Z" fill="#121515"/>
<path opacity="0.4" fill-rule="evenodd" clip-rule="evenodd" d="M6.99992 6.12504C7.48317 6.12504 7.87491 5.7333 7.87491 5.25005C7.87491 4.76681 7.48317 4.37507 6.99992 4.37507C6.51668 4.37507 6.12493 4.76681 6.12493 5.25005C6.12493 5.7333 6.51668 6.12504 6.99992 6.12504Z" fill="#636F73"/>
</svg>
