<svg width="148" height="296" viewBox="0 0 148 296" fill="none" xmlns="http://www.w3.org/2000/svg">
<mask id="path-1-inside-1_192_9790" fill="white">
<path d="M148 296C128.564 296 109.319 292.172 91.3628 284.734C73.4066 277.296 57.0913 266.395 43.3482 252.652C29.6051 238.909 18.7035 222.593 11.2658 204.637C3.82812 186.681 -7.31884e-06 167.436 -6.46929e-06 148C-5.61973e-06 128.564 3.82812 109.319 11.2658 91.3628C18.7035 73.4066 29.6051 57.0912 43.3482 43.3482C57.0913 29.6051 73.4067 18.7035 91.3629 11.2658C109.319 3.82812 128.564 -9.01796e-06 148 -6.46928e-06L148 148L148 296Z"/>
</mask>
<path d="M148 296C128.564 296 109.319 292.172 91.3628 284.734C73.4066 277.296 57.0913 266.395 43.3482 252.652C29.6051 238.909 18.7035 222.593 11.2658 204.637C3.82812 186.681 -7.31884e-06 167.436 -6.46929e-06 148C-5.61973e-06 128.564 3.82812 109.319 11.2658 91.3628C18.7035 73.4066 29.6051 57.0912 43.3482 43.3482C57.0913 29.6051 73.4067 18.7035 91.3629 11.2658C109.319 3.82812 128.564 -9.01796e-06 148 -6.46928e-06L148 148L148 296Z" stroke="#BEC9B8" stroke-width="92" mask="url(#path-1-inside-1_192_9790)"/>
</svg>
