<svg width="148" height="296" viewBox="0 0 148 296" fill="none" xmlns="http://www.w3.org/2000/svg">
<mask id="path-1-inside-1_192_9786" fill="white">
<path d="M148 296C108.748 296 71.1036 280.407 43.3482 252.652C15.5928 224.896 -8.18505e-06 187.252 -6.46929e-06 148C-4.75352e-06 108.748 15.5928 71.1036 43.3482 43.3482C71.1036 15.5928 108.748 -2.25815e-06 148 -6.46928e-06L148 148L148 296Z"/>
</mask>
<path d="M148 296C108.748 296 71.1036 280.407 43.3482 252.652C15.5928 224.896 -8.18505e-06 187.252 -6.46929e-06 148C-4.75352e-06 108.748 15.5928 71.1036 43.3482 43.3482C71.1036 15.5928 108.748 -2.25815e-06 148 -6.46928e-06L148 148L148 296Z" stroke="#1B4748" stroke-width="92" mask="url(#path-1-inside-1_192_9786)"/>
</svg>
