<svg width="148" height="296" viewBox="0 0 148 296" fill="none" xmlns="http://www.w3.org/2000/svg">
<mask id="path-1-inside-1_192_9789" fill="white">
<path d="M-1.29386e-05 -6.46929e-06C19.4356 -7.31884e-06 38.681 3.82812 56.6371 11.2658C74.5933 18.7035 90.9087 29.6051 104.652 43.3482C118.395 57.0913 129.296 73.4066 136.734 91.3628C144.172 109.319 148 128.564 148 148C148 167.436 144.172 186.681 136.734 204.637C129.296 222.593 118.395 238.909 104.652 252.652C90.9087 266.395 74.5933 277.296 56.6371 284.734C38.681 292.172 19.4356 296 -1.52588e-05 296L-6.46929e-06 148L-1.29386e-05 -6.46929e-06Z"/>
</mask>
<path d="M-1.29386e-05 -6.46929e-06C19.4356 -7.31884e-06 38.681 3.82812 56.6371 11.2658C74.5933 18.7035 90.9087 29.6051 104.652 43.3482C118.395 57.0913 129.296 73.4066 136.734 91.3628C144.172 109.319 148 128.564 148 148C148 167.436 144.172 186.681 136.734 204.637C129.296 222.593 118.395 238.909 104.652 252.652C90.9087 266.395 74.5933 277.296 56.6371 284.734C38.681 292.172 19.4356 296 -1.52588e-05 296L-6.46929e-06 148L-1.29386e-05 -6.46929e-06Z" stroke="#6EAEAD" stroke-width="92" mask="url(#path-1-inside-1_192_9789)"/>
</svg>
