<svg width="148" height="296" viewBox="0 0 148 296" fill="none" xmlns="http://www.w3.org/2000/svg">
<mask id="path-1-inside-1_192_9787" fill="white">
<path d="M-1.29386e-05 296C19.4356 296 38.6809 292.172 56.6371 284.734C74.5933 277.296 90.9087 266.395 104.652 252.652C118.395 238.909 129.296 222.593 136.734 204.637C144.172 186.681 148 167.436 148 148C148 128.564 144.172 109.319 136.734 91.3628C129.296 73.4067 118.395 57.0913 104.652 43.3482C90.9087 29.6051 74.5933 18.7035 56.6371 11.2658C38.6809 3.82812 19.4356 -7.31884e-06 -1.52588e-05 -6.46929e-06L-6.46929e-06 148L-1.29386e-05 296Z"/>
</mask>
<path d="M-1.29386e-05 296C19.4356 296 38.6809 292.172 56.6371 284.734C74.5933 277.296 90.9087 266.395 104.652 252.652C118.395 238.909 129.296 222.593 136.734 204.637C144.172 186.681 148 167.436 148 148C148 128.564 144.172 109.319 136.734 91.3628C129.296 73.4067 118.395 57.0913 104.652 43.3482C90.9087 29.6051 74.5933 18.7035 56.6371 11.2658C38.6809 3.82812 19.4356 -7.31884e-06 -1.52588e-05 -6.46929e-06L-6.46929e-06 148L-1.29386e-05 296Z" stroke="#296968" stroke-width="92" mask="url(#path-1-inside-1_192_9787)"/>
</svg>
