<svg width="339" height="699" viewBox="0 0 339 699" fill="none" xmlns="http://www.w3.org/2000/svg">
<path fill-rule="evenodd" clip-rule="evenodd" d="M265.718 0.816589H73.1663C53.648 0.816589 44.0826 0.826663 36.3643 3.33449C20.7024 8.42333 8.42333 20.7024 3.33449 36.3643C0.826663 44.0826 0.816589 53.648 0.816589 73.1663V625.833C0.816589 645.352 0.826663 654.917 3.33449 662.636C8.42333 678.297 20.7024 690.576 36.3643 695.665C44.0826 698.173 53.648 698.183 73.1663 698.183H265.718C285.236 698.183 294.802 698.173 302.52 695.665C318.182 690.576 330.461 678.297 335.55 662.636C338.058 654.917 338.068 645.352 338.068 625.833V73.1663C338.068 53.648 338.058 44.0826 335.55 36.3643C330.461 20.7024 318.182 8.42333 302.52 3.33449C294.802 0.826663 285.236 0.816589 265.718 0.816589ZM2.55787 36.1119C0 43.9842 0 53.7116 0 73.1663V625.833C0 645.288 0 655.016 2.55787 662.888C7.72748 678.798 20.2015 691.272 36.1119 696.442C43.9842 699 53.7116 699 73.1663 699H265.718C285.173 699 294.9 699 302.772 696.442C318.683 691.272 331.157 678.798 336.326 662.888C338.884 655.016 338.884 645.288 338.884 625.833V73.1663C338.884 53.7116 338.884 43.9842 336.326 36.1119C331.157 20.2015 318.683 7.72748 302.772 2.55787C294.9 0 285.173 0 265.718 0H73.1663C53.7116 0 43.9842 0 36.1119 2.55787C20.2015 7.72748 7.72748 20.2015 2.55787 36.1119Z" fill="#8EADC1"/>
</svg>
