<svg width="80" height="80" viewBox="0 0 80 80" fill="none" xmlns="http://www.w3.org/2000/svg">
<rect x="1.33333" y="1.33333" width="77.3333" height="77.3333" rx="38.6667" stroke="#0D0D0D" stroke-width="2.66667"/>
<path d="M53.7274 59.8184C56.5389 58.7321 58.7617 56.5093 59.848 53.6977C60.3622 52.3659 60.7222 50.8463 60.8199 48.6236C60.843 48.1029 60.861 47.6658 60.8777 47.2275V32.3765C60.8662 32.0667 60.8533 31.744 60.8366 31.3815C60.7389 29.1587 60.3789 27.6315 59.8647 26.3073C59.3338 24.9022 58.5161 23.6436 57.4465 22.5984C56.4001 21.5353 55.1338 20.7099 53.7441 20.188C52.4122 19.6738 50.8927 19.3138 48.6699 19.2161C46.4305 19.1094 45.7195 19.085 40.0412 19.085C34.3628 19.085 33.6506 19.1094 31.4201 19.2071C29.1974 19.3048 27.6701 19.6648 26.3459 20.179C24.9408 20.7099 23.6822 21.5276 22.6358 22.5984C21.5739 23.6449 20.7486 24.9112 20.2253 26.2996C19.7111 27.6315 19.3511 29.151 19.2534 31.3738C19.1467 33.6132 19.1223 34.3242 19.1223 40.0038C19.1223 45.6835 19.1467 46.3944 19.2444 48.6249C19.3421 50.8476 19.7021 52.3762 20.2176 53.699C20.7486 55.1042 21.5739 56.3627 22.6358 57.4092C23.6822 58.4711 24.9485 59.2977 26.3382 59.8196C27.6701 60.3339 29.1896 60.6938 31.4124 60.7915C33.6429 60.8905 34.3538 60.915 40.0335 60.915C45.7131 60.915 46.4228 60.8905 48.6545 60.7915C50.8773 60.6938 52.4032 60.3326 53.7274 59.8184ZM40.0489 57.1547C34.4669 57.1547 33.7971 57.1302 31.5988 57.0325C29.556 56.9425 28.453 56.5993 27.7177 56.3139C26.8113 55.9784 25.986 55.4474 25.3149 54.7532C24.6207 54.0744 24.0885 53.2581 23.7542 52.3505C23.4688 51.6151 23.1256 50.5031 23.0356 48.4693C22.9379 46.2633 22.9135 45.6012 22.9135 40.0192C22.9135 34.4373 22.9379 33.7675 23.0356 31.5705C23.1256 29.5277 23.4688 28.4247 23.7542 27.6893C24.0898 26.7817 24.6207 25.9564 25.3239 25.2866C26.0014 24.5924 26.819 24.0614 27.7254 23.7259C28.4607 23.4405 29.5727 23.0972 31.6065 23.0072C33.8126 22.9095 34.4746 22.8851 40.0553 22.8851C45.636 22.8851 46.3071 22.9095 48.5054 23.0072C50.5482 23.0972 51.6512 23.4405 52.3865 23.7259C53.2929 24.0614 54.1182 24.5924 54.788 25.2866C55.4822 25.9654 56.0144 26.7817 56.3487 27.6893C56.6341 28.4247 56.9773 29.5354 57.0673 31.5705C57.165 33.7765 57.1894 34.4386 57.1894 40.0192C57.1894 45.5999 57.165 46.2543 57.0673 48.4603C56.9773 50.5031 56.6341 51.6061 56.3487 52.3415C55.6455 54.1644 54.1992 55.6107 52.3775 56.3126C51.6422 56.598 50.5315 56.9413 48.4964 57.0312C46.2903 57.1289 45.6296 57.1547 40.0489 57.1547Z" fill="#0D0D0D"/>
<path d="M40.0416 29.2565C34.1087 29.2565 29.2955 34.0697 29.2955 40.0026C29.2955 45.9355 34.1087 50.7487 40.0416 50.7487C45.9745 50.7487 50.7864 45.9355 50.7864 40.0026C50.7864 34.0697 45.9732 29.2565 40.0416 29.2565ZM40.0416 46.9717C36.1926 46.9717 33.0712 43.8503 33.0712 40.0013C33.0712 36.1523 36.1926 33.031 40.0416 33.031C43.8906 33.031 47.012 36.1523 47.012 40.0013C47.012 43.8503 43.8906 46.9717 40.0416 46.9717Z" fill="#0D0D0D"/>
<path d="M53.7174 28.8317C53.7174 27.4458 52.5938 26.3235 51.2079 26.3235C49.8221 26.3235 48.6998 27.4471 48.6998 28.8317C48.6998 30.2162 49.8234 31.3398 51.2079 31.3398C52.5925 31.3398 53.7174 30.2175 53.7174 28.8317Z" fill="#0D0D0D"/>
</svg>
