<svg width="59" height="59" viewBox="0 0 59 59" fill="none" xmlns="http://www.w3.org/2000/svg">
<g clip-path="url(#clip0_0_30)">
<circle cx="29.5001" cy="29.5004" r="27.8037" stroke="#0F0F0F" stroke-width="2.262"/>
<path d="M21.9301 22.0001C23.3489 20.6149 26.8959 19.2298 29.0241 20.6149C32.9838 23.1919 30.4434 27.541 26.187 28.2336C28.0787 28.2336 31.8622 29.0648 31.8622 32.3893C31.8622 37.5334 26.1867 40.3596 21.9303 38.2605C17.6739 36.1615 17.6737 32.7603 17.6737 30.6825" stroke="#141B34" stroke-width="1.74361" stroke-linecap="round" stroke-linejoin="round"/>
<path d="M37.7747 27.1358C36.6531 31.57 33.0123 30.9743 30.9153 29.9665" stroke="#141B34" stroke-width="1.74361" stroke-linejoin="round"/>
<path d="M37.7752 21.2233L37.7752 38.9589" stroke="#141B34" stroke-width="1.74361" stroke-linecap="round" stroke-linejoin="round"/>
<path d="M34.2272 20.0412C36.0007 20.5531 38.3655 21.0651 41.3214 20.0412" stroke="#141B34" stroke-width="1.74361" stroke-linecap="round" stroke-linejoin="round"/>
</g>
<defs>
<clipPath id="clip0_0_30">
<rect width="58.002" height="58.002" fill="white" transform="scale(1.01721)"/>
</clipPath>
</defs>
</svg>
