<svg width="80" height="80" viewBox="0 0 80 80" fill="none" xmlns="http://www.w3.org/2000/svg">
<rect x="1.33333" y="1.33333" width="77.3333" height="77.3333" rx="38.6667" stroke="#0D0D0D" stroke-width="2.66667"/>
<path d="M60 58.0004H53.3327V42.9671C53.3327 40.1337 53.2927 36.5604 49.4394 36.5604C45.5194 36.5604 44.8927 39.5538 44.8927 42.7671V58.0004H38.226V26H44.6327V29.3738H44.7194C45.5994 27.7338 47.7994 25.9871 51.1327 25.9871C57.9194 25.9871 59.9994 30.2671 59.9994 35.8871V58.0004H60ZM20.0394 22.6271C17.8927 22.6271 16.1727 20.8804 16.1727 18.7604C16.1727 16.6404 17.8927 14.8938 20.0394 14.8938C22.1594 14.8938 23.8794 16.6404 23.8794 18.7604C23.8794 20.8804 22.1594 22.6271 20.0394 22.6271ZM23.3727 58.0004H16.7061V26H23.3727V58.0004Z" fill="#0D0D0D"/>
</svg>