<svg width="151" height="123" viewBox="0 0 151 123" fill="none" xmlns="http://www.w3.org/2000/svg">
<g clip-path="url(#clip0_0_55)">
<path d="M32.3882 64.2092H42.6807C43.7928 64.2025 44.8626 64.6352 45.6572 65.4134C46.4518 66.1915 46.907 67.252 46.9235 68.364V77.8633H31.5321C30.853 77.8666 30.2003 77.601 29.7167 77.1244C29.233 76.6478 28.9577 75.999 28.9511 75.3201V72.0214C28.9594 71.3892 29.2177 70.7859 29.6695 70.3436C30.1213 69.9012 30.7298 69.6557 31.3621 69.6608H39.8856L38.9791 71.5871H32.6967C32.426 71.5871 32.1175 71.8011 32.1175 72.097V74.6905C32.1175 74.9864 32.426 75.2067 32.6967 75.2067H43.5871V68.9746C43.5871 67.7722 42.5233 66.8469 41.3398 66.8469H31.1292L32.3882 64.2092ZM116.912 59.255V77.8822H101.911C101.233 77.8855 100.581 77.6207 100.098 77.1455C99.6144 76.6703 99.3384 76.0231 99.3301 75.3452V68.3577C99.3483 67.2457 99.805 66.1858 100.601 65.4089C101.397 64.632 102.467 64.2008 103.579 64.2092H112.122L110.863 66.8658H104.895C103.711 66.8658 102.648 67.7911 102.648 68.9872V74.7157C102.648 75.0053 102.956 75.2193 103.227 75.2193H113.576V59.255H116.912ZM64.2098 77.8822H67.5273V68.3766C67.5091 67.2656 67.0533 66.2068 66.2588 65.43C65.4644 64.6532 64.3955 64.2213 63.2845 64.2281H56.2277L54.9687 66.8846H61.9625C63.146 66.8846 64.2098 67.81 64.2098 69.0061V77.8822ZM50.3921 59.2487V77.8822H53.7096V59.2487H50.3921ZM22.6938 77.8822H26.0113V68.3766C25.9931 67.2656 25.5372 66.2068 24.7428 65.43C23.9483 64.6532 22.8795 64.2213 21.7684 64.2281H0V77.8822H3.31121V67.3757C3.31121 67.0798 3.62597 66.8658 3.89666 66.8658H10.7583C11.029 66.8658 11.3374 67.0798 11.3374 67.3757V77.8822H14.655V67.3757C14.655 67.0798 14.9634 66.8658 15.2341 66.8658H20.4464C21.6299 66.8658 22.6938 67.7911 22.6938 68.9872V77.8822ZM134.243 64.2092H125.902C124.79 64.2025 123.72 64.6352 122.925 65.4134C122.13 66.1915 121.675 67.252 121.659 68.364V77.8633H124.976V68.9872C124.976 67.7911 126.04 66.8658 127.224 66.8658H132.977L134.243 64.2092ZM91.7319 64.2092C92.8452 64.2008 93.9166 64.6328 94.7126 65.4111C95.5085 66.1894 95.9645 67.2509 95.9811 68.364V77.8633H92.6636V68.9872C92.6636 67.7911 91.5934 66.8658 90.4163 66.8658H82.4341V77.8822H79.1166V64.2281C83.3028 64.2281 87.5079 64.2092 91.7319 64.2092ZM71.6506 65.0717L74.9681 63.1454V77.8633H71.6569L71.6506 65.0717ZM74.987 61.238V59.2109H71.6758V63.1454L74.987 61.238ZM136.566 64.2092H146.839C147.951 64.2025 149.021 64.6352 149.816 65.4134C150.61 66.1915 151.065 67.252 151.082 68.364V77.8633H135.69C135.011 77.8666 134.359 77.601 133.875 77.1244C133.391 76.6478 133.116 75.999 133.11 75.3201V72.0214C133.118 71.3892 133.376 70.7859 133.828 70.3436C134.28 69.9012 134.888 69.6557 135.521 69.6608H144.044L143.138 71.5871H136.855C136.584 71.5871 136.276 71.8011 136.276 72.097V74.6905C136.276 74.9864 136.584 75.2067 136.855 75.2067H147.746V68.9746C147.746 67.7722 146.682 66.8469 145.498 66.8469H135.288L136.566 64.2092Z" fill="#666666"/>
</g>
<defs>
<clipPath id="clip0_0_55">
<rect width="151" height="123" fill="white"/>
</clipPath>
</defs>
</svg>
