<svg width="151" height="123" viewBox="0 0 151 123" fill="none" xmlns="http://www.w3.org/2000/svg">
<g clip-path="url(#clip0_0_62)">
<path d="M124.75 57.7176L125.039 74.6766H124.894L119.984 57.7239H111.908V79.0769H117.246L116.956 61.545H117.101L122.364 79.0769H130.088V57.7239L124.75 57.7176ZM23.0841 57.7176L19.0489 79.2972H24.8908L27.8494 59.6691H27.9942L30.8837 79.2972H36.65L32.6841 57.7239L23.0841 57.7176ZM55.6989 57.7176L53.0298 74.173H52.885L50.2159 57.7239H41.4216L40.9873 79.2972H46.4011L46.5458 59.8894H46.6151L50.2222 79.2972H55.7052L59.3123 59.8894H59.4571L59.6018 79.2972H65.0156L64.512 57.7239L55.6989 57.7176ZM9.95882 73.1658C10.1229 73.6789 10.1468 74.2266 10.0281 74.7521C9.88328 75.4698 9.37967 76.1937 7.9381 76.1937C6.56577 76.1937 5.77259 75.4005 5.77259 74.2422V72.1523H0V73.8142C0 78.6488 3.82111 80.0904 7.86885 80.0904C11.7592 80.0904 15.0075 78.718 15.5111 75.1802C15.8007 73.3043 15.5866 72.083 15.5111 71.6487C14.5039 67.1036 6.2762 65.8005 5.69705 63.2762C5.62501 62.8956 5.62501 62.5048 5.69705 62.1242C5.84184 61.4003 6.35174 60.6763 7.64852 60.6763C8.94531 60.6763 9.66295 61.4758 9.66295 62.6278V63.9246H15.0767V62.4138C15.0767 57.7239 10.8212 57 7.79331 57C3.9659 57 0.79318 58.2968 0.214033 61.7654C0.0245799 62.7201 0.0503863 63.705 0.289574 64.6485C1.152 69.118 8.87607 70.4211 9.95882 73.1595M80.1616 73.1595C80.3756 73.6631 80.3001 74.3178 80.2308 74.7521C80.086 75.4698 79.5824 76.1937 78.1409 76.1937C76.7685 76.1937 75.9753 75.4005 75.9753 74.2422V72.1523H70.2028V73.8142C70.2028 78.5732 73.9546 80.0148 77.9961 80.0148C81.8927 80.0148 85.0654 78.718 85.5691 75.111C85.8586 73.235 85.6446 72.083 85.5691 71.5731C84.7066 67.1036 76.5482 65.7313 75.9753 63.2762C75.9027 62.8956 75.9027 62.5048 75.9753 62.1242C76.1201 61.4003 76.6237 60.6763 77.9268 60.6763C79.1481 60.6763 79.9412 61.4758 79.9412 62.6278V63.9246H85.2795V62.4138C85.2795 57.7239 81.0932 57 78.0653 57C74.2442 57 71.1407 58.2275 70.5616 61.7654C70.4168 62.7033 70.4168 63.5658 70.6371 64.6485C71.4995 69.118 79.0725 70.3456 80.1616 73.1595ZM98.3418 76.0489C99.8526 76.0489 100.293 75.0417 100.432 74.4626C100.507 74.2422 100.507 73.8834 100.507 73.6694V57.7176H105.984V73.2287C105.984 73.6631 105.984 74.4563 105.921 74.6766C105.556 78.7117 102.383 80.0085 98.411 80.0085C94.4451 80.0085 91.2724 78.7117 90.9073 74.6703C90.9073 74.4563 90.838 73.6631 90.838 73.2287V57.7176H96.3148V73.6631C96.3148 73.9527 96.3148 74.2359 96.3903 74.4563C96.3903 75.0291 96.8309 76.0426 98.3418 76.0426M143.364 75.8286C144.951 75.8286 145.454 74.8214 145.599 74.2359C145.668 74.0219 145.668 73.6631 145.668 73.4428V70.3393H143.433V67.1666H151.082V72.9391C151.082 73.3735 151.082 73.6631 151.013 74.387C150.648 78.3529 147.255 79.7189 143.433 79.7189C139.612 79.7189 136.219 78.3529 135.86 74.3807C135.785 73.6631 135.785 73.3735 135.785 72.9391V63.849C135.785 63.4902 135.86 62.7663 135.86 62.4012C136.364 58.366 139.612 57.0692 143.433 57.0692C147.255 57.0692 150.578 58.366 151.006 62.4075C151.082 63.0559 151.082 63.849 151.082 63.849V64.573H145.668V63.3454C145.668 63.3454 145.668 62.8418 145.599 62.5523C145.523 62.0487 145.095 60.9659 143.433 60.9659C141.847 60.9659 141.419 61.9731 141.268 62.5523C141.199 62.8355 141.199 63.2007 141.199 63.5595V73.4428C141.199 73.7323 141.199 74.0219 141.268 74.2359C141.268 74.8151 141.847 75.8286 143.364 75.8286Z" fill="#666666"/>
</g>
<defs>
<clipPath id="clip0_0_62">
<rect width="151" height="123" fill="white"/>
</clipPath>
</defs>
</svg>
