<svg width="151" height="123" viewBox="0 0 151 123" fill="none" xmlns="http://www.w3.org/2000/svg">
<g clip-path="url(#clip0_0_64)">
<path d="M17.941 73.4937C10.3176 73.4182 5.40118 69.8048 5.40118 64.2714C5.40118 58.7381 10.3176 55.131 17.9284 55.0491C25.5454 55.131 30.4682 58.7507 30.4682 64.2714C30.4682 69.7922 25.5454 73.4182 17.941 73.4937ZM18.155 50.5922H17.6955C7.27712 50.7622 0 56.3837 0 64.2651C0 72.1466 7.27712 77.7807 17.6955 77.9507H18.155C28.5734 77.7807 35.8505 72.1529 35.8505 64.2651C35.8505 56.3774 28.5734 50.7622 18.155 50.5922ZM133.166 73.4937C125.549 73.4182 120.626 69.7985 120.626 64.2714C120.626 58.7444 125.549 55.131 133.16 55.0491C140.777 55.131 145.693 58.7507 145.693 64.2714C145.693 69.7922 140.777 73.4182 133.166 73.4937ZM133.386 50.5922H132.927C122.509 50.7622 115.231 56.3837 115.231 64.2714C115.231 72.1592 122.509 77.787 132.921 77.9569H133.386C143.805 77.787 151.082 72.1592 151.082 64.2651C151.082 56.3711 143.805 50.7622 133.386 50.5922ZM94.8228 73.4937C87.2058 73.4182 82.2956 69.7985 82.2956 64.2714C82.2956 58.7444 87.2058 55.131 94.8228 55.0491C102.44 55.131 107.356 58.7507 107.356 64.2714C107.356 69.7922 102.44 73.4182 94.8291 73.4937H94.8228ZM95.0494 50.5922H94.5899C89.6231 50.6741 85.3739 51.9897 82.283 54.2056V51.8764H76.8881V86.4994H82.283V74.3436C85.3676 76.5531 89.6231 77.8688 94.5836 77.9569H95.0494C105.468 77.787 112.739 72.1592 112.739 64.2714C112.739 56.3837 105.468 50.7622 95.0494 50.5922ZM56.3725 73.4937C48.7554 73.4182 43.8452 69.7985 43.8452 64.2714C43.8452 58.7444 48.7554 55.131 56.3725 55.0491C63.9895 55.131 68.906 58.7507 68.906 64.2714C68.906 69.7922 63.9895 73.4182 56.3788 73.4937H56.3725ZM56.6054 50.5922H56.1521C51.1853 50.6741 46.9361 51.9897 43.8452 54.2056V51.8764H38.4567V86.4994H43.8452V74.3436C46.9361 76.5531 51.1853 77.8688 56.1521 77.9569C56.3053 77.9584 56.4585 77.9584 56.6117 77.9569C67.03 77.787 74.3072 72.1592 74.3072 64.2714C74.3072 56.3837 67.03 50.7622 56.618 50.5922H56.6054Z" fill="#666666"/>
</g>
<defs>
<clipPath id="clip0_0_64">
<rect width="151" height="123" fill="white"/>
</clipPath>
</defs>
</svg>
