<svg width="127" height="110" viewBox="0 0 127 110" fill="none" xmlns="http://www.w3.org/2000/svg">
<path d="M14.7464 61.021L0.0141296 0.618478C-0.0626681 0.303608 0.175791 0 0.499891 0H106.263C117.309 0 126.263 8.95431 126.263 20V109.5C126.263 109.776 126.039 110 125.763 110H106.57C106.438 110 106.311 109.947 106.217 109.854L81.7806 85.4174C81.5622 85.1989 81.1998 85.2289 81.0202 85.4803L67.0134 105.09C66.7622 105.442 66.2132 105.33 66.1186 104.909L59.895 77.1416C59.8743 77.0491 59.8277 76.9644 59.7607 76.8974L39.0589 56.1956C38.9372 56.0739 38.7614 56.0233 38.5936 56.0618L15.3439 61.3899C15.0774 61.4509 14.8112 61.2866 14.7464 61.021Z" fill="#F9FAFB"/>
</svg>
