<svg width="438" height="295" viewBox="0 0 438 295" fill="none" xmlns="http://www.w3.org/2000/svg">
<path d="M8.19093 206.034V156.258H34.024M34.024 156.258V144.917M34.024 156.258C35.7042 170.96 40.8288 202.758 47.8856 212.335M34.024 144.917H70.5683C75.1888 145.127 84.4299 142.019 84.4299 127.905C84.4299 113.791 84.4299 42.2149 84.4299 8.19093M34.024 144.917C34.024 84.4299 67.6279 28.5633 84.4299 8.19093M84.4299 8.19093H134.836M313.777 8.19093V166.97M313.777 8.19093H204.144M313.777 8.19093C327.639 8.61098 358.008 20.1623 368.593 63.0074V166.97M313.777 166.97H303.066C284.415 166.97 276.392 185.452 274.712 194.693C274.712 200.641 274.712 211.231 274.712 220.526M313.777 166.97H368.593M204.144 8.19093V245.729M204.144 8.19093H134.836M204.144 245.729H137.986C134.416 230.397 127.275 188.77 127.275 144.917C127.275 101.064 132.316 35.4941 134.836 8.19093M204.144 245.729H267.781C270.092 245.729 274.712 243.461 274.712 234.388C274.712 231.025 274.712 226 274.712 220.526M368.593 166.97H391.906C394.006 166.76 398.207 168.23 398.207 175.791C398.207 183.352 398.207 208.765 398.207 220.526M398.207 220.526H274.712M398.207 220.526C408.708 221.366 429.711 228.843 429.711 252.03V278.493C430.131 280.593 429.458 284.793 423.41 284.793C417.361 284.793 402.827 284.793 396.317 284.793M79.3893 274.082C77.4991 276.603 77.3731 282.273 91.9908 284.793C106.609 287.314 243.419 285.844 309.996 284.793" stroke="url(#paint0_radial_0_94)" stroke-width="16.376"/>
<path d="M8.19093 206.034V156.258H34.024M34.024 156.258V144.917M34.024 156.258C35.7042 170.96 40.8288 202.758 47.8856 212.335M34.024 144.917H70.5683C75.1888 145.127 84.4299 142.019 84.4299 127.905C84.4299 113.791 84.4299 42.2149 84.4299 8.19093M34.024 144.917C34.024 84.4299 67.6279 28.5633 84.4299 8.19093M84.4299 8.19093H134.836M313.777 8.19093V166.97M313.777 8.19093H204.144M313.777 8.19093C327.639 8.61098 358.008 20.1623 368.593 63.0074V166.97M313.777 166.97H303.066C284.415 166.97 276.392 185.452 274.712 194.693C274.712 200.641 274.712 211.231 274.712 220.526M313.777 166.97H368.593M204.144 8.19093V245.729M204.144 8.19093H134.836M204.144 245.729H137.986C134.416 230.397 127.275 188.77 127.275 144.917C127.275 101.064 132.316 35.4941 134.836 8.19093M204.144 245.729H267.781C270.092 245.729 274.712 243.461 274.712 234.388C274.712 231.025 274.712 226 274.712 220.526M368.593 166.97H391.906C394.006 166.76 398.207 168.23 398.207 175.791C398.207 183.352 398.207 208.765 398.207 220.526M398.207 220.526H274.712M398.207 220.526C408.708 221.366 429.711 228.843 429.711 252.03V278.493C430.131 280.593 429.458 284.793 423.41 284.793C417.361 284.793 402.827 284.793 396.317 284.793M79.3893 274.082C77.4991 276.603 77.3731 282.273 91.9908 284.793C106.609 287.314 243.419 285.844 309.996 284.793" stroke="url(#paint1_linear_0_94)" stroke-width="16.376"/>
<defs>
<radialGradient id="paint0_radial_0_94" cx="0" cy="0" r="1" gradientUnits="userSpaceOnUse" gradientTransform="translate(328.899 42.845) rotate(130.456) scale(269.948 193.787)">
<stop stop-color="#020202"/>
<stop offset="0.5" stop-color="#011610"/>
<stop offset="1" stop-color="#043A2A"/>
</radialGradient>
<linearGradient id="paint1_linear_0_94" x1="82.5397" y1="8.19092" x2="253.92" y2="286.684" gradientUnits="userSpaceOnUse">
<stop stop-color="#05412F"/>
<stop offset="1" stop-color="#010604"/>
</linearGradient>
</defs>
</svg>
