<svg width="67" height="62" viewBox="0 0 67 62" fill="none" xmlns="http://www.w3.org/2000/svg">
<path d="M63.2963 37.9806C65.034 37.5119 65.9028 37.2775 66.246 36.8295C66.5892 36.3815 66.5892 35.6608 66.5892 34.2194V27.7815C66.5892 26.34 66.5892 25.6193 66.246 25.1713C65.9028 24.7233 65.0339 24.489 63.2963 24.0203C56.8026 22.2691 52.7383 15.4801 54.4143 9.02878C54.8752 7.25458 55.1056 6.36748 54.8856 5.8472C54.6655 5.32692 54.034 4.96838 52.7711 4.2513L47.0288 0.990993C45.7894 0.287336 45.1698 -0.0644922 44.6136 0.0104317C44.0574 0.0853556 43.43 0.711306 42.1751 1.96321C37.3165 6.81006 29.2779 6.80986 24.4194 1.9629C23.1645 0.710992 22.537 0.0850384 21.9809 0.0101103C21.4247 -0.0648176 20.805 0.287013 19.5657 0.990676L13.8234 4.25098C12.5605 4.96802 11.929 5.32654 11.709 5.84675C11.4889 6.36697 11.7193 7.25416 12.18 9.02853C13.8551 15.48 9.78768 22.2692 3.29291 24.0204C1.55526 24.4889 0.686432 24.7232 0.343216 25.1712C0 25.6192 0 26.34 0 27.7815V34.2194C0 35.6609 0 36.3816 0.34319 36.8296C0.686379 37.2776 1.55522 37.5119 3.29289 37.9806C9.78659 39.7318 13.8508 46.5208 12.1749 52.9721C11.714 54.7463 11.4835 55.6334 11.7036 56.1537C11.9236 56.674 12.5551 57.0325 13.8181 57.7496L19.5604 61.0099C20.7998 61.7136 21.4195 62.0655 21.9758 61.9905C22.532 61.9155 23.1593 61.2895 24.414 60.0376C29.2751 55.1867 37.3194 55.1865 42.1805 60.0372C43.4351 61.2892 44.0625 61.9152 44.6187 61.9902C45.1749 62.0651 45.7946 61.7133 47.034 61.0096L52.7763 57.7493C54.0394 57.0322 54.6709 56.6736 54.8909 56.1533C55.111 55.6329 54.8804 54.7459 54.4194 52.9719C52.7426 46.5208 56.8037 39.732 63.2963 37.9806Z" fill="#BEC9B8"/>
</svg>
