<svg width="119" height="140" viewBox="0 0 119 140" fill="none" xmlns="http://www.w3.org/2000/svg">
<path d="M0.000416625 61.7565L2.65389 0.479391C2.66798 0.154105 2.98369 -0.0715705 3.29602 0.0203806L104.011 29.6706C114.63 32.7968 120.704 43.9396 117.578 54.5587L92.53 139.641C92.4518 139.906 92.1733 140.058 91.9078 139.98L74.4175 134.831C74.29 134.793 74.1827 134.707 74.1191 134.59L57.5428 104.181C57.3946 103.91 57.0377 103.836 56.7939 104.027L37.778 118.915C37.4369 119.182 36.9406 118.919 36.9691 118.487L38.8447 90.031C38.8509 89.9362 38.8301 89.8416 38.7846 89.7582L24.7415 63.9968C24.659 63.8453 24.5043 63.747 24.3321 63.7365L0.470471 62.2783C0.197705 62.2617 -0.0114055 62.0295 0.000416625 61.7565Z" fill="#F8BB25"/>
</svg>
