<svg width="80" height="80" viewBox="0 0 80 80" fill="none" xmlns="http://www.w3.org/2000/svg">
<rect x="1.33333" y="1.33333" width="77.3333" height="77.3333" rx="38.6667" stroke="#0D0D0D" stroke-width="2.66667"/>
<path d="M62.4927 28.6204C61.8794 26.2004 60.0127 24.3337 57.5927 23.7204C53.2794 22.6671 39.9994 22.6671 39.9994 22.6671C39.9994 22.6671 26.7194 22.6671 22.4061 23.7204C19.9861 24.3337 18.1194 26.2004 17.5061 28.6204C16.4527 32.9337 16.4527 42.0004 16.4527 42.0004C16.4527 42.0004 16.4527 51.0671 17.5061 55.3804C18.1194 57.8004 19.9861 59.6671 22.4061 60.2804C26.7194 61.3337 39.9994 61.3337 39.9994 61.3337C39.9994 61.3337 53.2794 61.3337 57.5927 60.2804C60.0127 59.6671 61.8794 57.8004 62.4927 55.3804C63.5461 51.0671 63.5461 42.0004 63.5461 42.0004C63.5461 42.0004 63.5461 32.9337 62.4927 28.6204ZM34.6661 49.3337V34.6671L47.9994 42.0004L34.6661 49.3337Z" fill="#0D0D0D"/>
</svg>